<?xml version="1.0" encoding="UTF-8"?>
<!DOCTYPE svg PUBLIC "-//W3C//DTD SVG 1.1//EN" "http://www.w3.org/Graphics/SVG/1.1/DTD/svg11.dtd">
<svg xmlns="http://www.w3.org/2000/svg" xml:space="preserve" width="431.949mm" height="80mm" version="1.1" style="shape-rendering:geometricPrecision; text-rendering:geometricPrecision; image-rendering:optimizeQuality; fill-rule:evenodd; clip-rule:evenodd"
viewBox="0 0 43194.9 8000"
 xmlns:xlink="http://www.w3.org/1999/xlink">
 <defs>
  <style type="text/css">
   <![CDATA[
    .str2 {stroke:#FFFFFF;stroke-width:20;stroke-miterlimit:22.9256}
    .str0 {stroke:#FFFFFF;stroke-width:20;stroke-miterlimit:22.9256}
    .str1 {stroke:#FFFFFF;stroke-width:20;stroke-miterlimit:11.4737}
    .fil2 {fill:none}
    .fil1 {fill:#FFFFFF}
    .fil0 {fill:#FFFFFF;fill-rule:nonzero}
   ]]>
  </style>
 </defs>
 <g id="Capa_x0020_1">
   <metadata id="CorelCorpID_0Corel-Layer"/>
  <polygon class="fil0 str0" points="8870.19,2243.75 8870.19,3950.63 10552.3,3950.63 10269.75,4347.95 8869.87,4347.95 8869.87,6191.54 8410.47,6191.54 8410.47,1846.43 11389.9,1846.43 11107.35,2243.75 8869.56,2243.75 "/>
  <polygon class="fil0 str0" points="22383.43,5794.21 22383.43,6191.54 19310.9,6191.54 19310.9,1846.43 22290.3,1846.43 22290.3,2243.75 19769.99,2243.75 19769.99,3789.43 21734.63,3789.43 21734.63,4180.49 19769.99,4180.49 19769.99,5794.53 22383.12,5794.53 "/>
  <path class="fil0 str0" d="M24289.12 5663.77l180.01 -353.73c310.46,304.18 862.99,527.46 1434.05,527.46 813.14,0 1166.87,-341.51 1166.87,-769.86 0,-1191.98 -2675.23,-459.43 -2675.23,-2066.89 0,-639.42 496.4,-1191.95 1601.51,-1191.95 490.45,0 999.4,142.68 1346.86,384.77l-155.23 366.28c-372.54,-242.1 -806.86,-360.01 -1191.95,-360.01 -794.65,0 -1148.37,353.72 -1148.37,788.36 0,1191.97 2675.55,471.66 2675.55,2054.65 0,639.42 -508.96,1185.69 -1620.01,1185.69 -651.95,0 -1291.06,-229.86 -1614.06,-565.09l0 0.32z"/>
  <polygon class="fil0 str0" points="33395.49,1846.43 33395.49,6191.54 32942.35,6191.54 32942.35,4186.44 30223.52,4186.44 30223.52,6191.54 29764.11,6191.54 29764.11,1846.43 30223.52,1846.43 30223.52,3783.16 32942.35,3783.16 32942.35,1846.43 "/>
  <polygon class="fil0 str0" points="1808.77,6171.78 1808.77,1889.69 6142.26,1885 4913.29,2885.67 2802.2,2885.67 2802.2,4996.44 "/>
  <polygon class="fil0 str0" points="3228.06,5234.79 3228.06,3282.99 5200.87,3282.99 4861.88,3647.38 3640.11,3651.78 3629.16,4810.18 "/>
  <polygon class="fil0 str0" points="4917.38,6176.18 6155.13,6176.18 6161.08,4961.96 "/>
  <polygon class="fil0 str0" points="40609.36,1941.44 39963.67,1941.44 39963.67,1823.53 41386.11,1823.53 41386.11,1941.44 40740.43,1941.44 40740.43,3617.58 40609.67,3617.58 40609.67,1941.44 "/>
  <path class="fil0 str1" d="M35537.27 6202.43c221.97,0 421.52,-73.99 558.3,-219.73l-71.75 -73.99c-134.54,132.29 -298.21,188.34 -482.07,188.34 -401.34,0 -704.04,-295.96 -704.04,-690.59 0,-394.62 302.7,-690.58 704.04,-690.58 183.86,0 347.53,53.81 482.07,186.1l71.75 -73.99c-136.78,-145.74 -336.33,-217.49 -558.3,-217.49 -466.37,0 -813.9,338.56 -813.9,795.96 0,457.41 347.53,795.97 813.9,795.97z"/>
  <polygon class="fil0 str1" points="36792.98,6191.22 37810.88,6191.22 37810.88,6088.08 36907.33,6088.08 36907.33,4621.77 36792.98,4621.77 "/>
  <path class="fil0 str1" d="M40864.78 6092.57l-585.18 0 0 -647.96 585.18 0c300.44,0 464.11,98.65 464.11,322.86 0,226.45 -163.67,325.1 -464.11,325.1zm-49.33 -1372.15c271.29,0 428.24,105.38 428.24,311.65 0,208.51 -156.95,313.89 -428.24,313.89l-535.85 0 0 -625.54 535.85 0zm282.5 661.41c156.95,-51.56 262.33,-172.64 262.33,-358.73 0,-260.08 -204.03,-401.33 -540.34,-401.33l-654.69 0 0 1569.45 699.53 0c385.63,0 578.45,-150.22 578.45,-414.78 0,-217.48 -123.31,-352.01 -345.28,-394.61z"/>
  <path class="fil0 str1" d="M39001.62 6202.43c390.12,0 630.02,-228.69 630.02,-677.1l0 -903.56 -114.34 0 0 899.07c0,392.36 -186.1,576.21 -513.44,576.21 -327.34,0 -515.67,-183.85 -515.67,-576.21l0 -899.07 -114.35 0 0 903.56c0,448.41 237.66,677.1 627.78,677.1z"/>
  <path class="fil0 str0" d="M38477.88 2989.46c266.54,-79.34 420.2,-276.58 420.2,-561.33 0,-379.43 -271.57,-604.91 -722.82,-604.91l-643.17 0 0 1794.05 130.76 0 0 -1675.83 512.41 0c384.46,0 589.55,176.88 589.55,487 0,279.72 -171.53,451.9 -491.4,481.07l77.15 109.43 427.43 598.64 148.63 0 -448.45 -627.81 -0.29 -0.31z"/>
  <polygon class="fil1 str0" points="35748.7,1906.94 36535.49,3617.27 36396.87,3617.27 36184.09,3151.71 36179.78,3142.08 36110.49,2987.05 35682.51,2047.42 35657.74,1993.49 35655.54,1998.49 35196.46,3012.02 35136.54,3141.38 34921.43,3617.27 34782.83,3617.27 35592.53,1857.07 35595.04,1852.38 35723.28,1852.38 "/>
  <rect class="fil2" y="-0" width="43194.89" height="8000"/>
  <path class="fil1 str2" d="M15207.86 1846.12c1104.8,0 1775.24,558.81 1775.24,1489.86 0,682.7 -360,1160.92 -993.14,1365.7l1061.51 1489.86 -502.69 0 -886.52 -1246.85 -106.31 -149.57c-0.11,0 -0.26,0 -0.41,0l106.09 149.28 -107.25 -149.59c0.11,0 0.26,0 0.41,0l-269.78 -376.31c51.43,-1.89 104.44,-2.52 152.71,-7.21 711.87,-69.94 1086.3,-458.78 1086.3,-1075 0,-695.23 -459.43,-1092.54 -1328.39,-1092.54l-1154.64 0 0 3947.47 -459.4 0 0 -4345.1 1626.27 0z"/>
 </g>
</svg>
