<svg width="36" height="37" viewBox="0 0 36 37" fill="none" xmlns="http://www.w3.org/2000/svg">
<path d="M18 1.50049C8.61116 1.50049 1 9.11165 1 18.5005C1 27.8893 8.61116 35.5005 18 35.5005C27.3888 35.5005 35 27.8893 35 18.5005C35 9.11165 27.3888 1.50049 18 1.50049Z" fill="#C8FAD6"/>
<path d="M18 1.50049C8.61116 1.50049 1 9.11165 1 18.5005C1 27.8893 8.61116 35.5005 18 35.5005C27.3888 35.5005 35 27.8893 35 18.5005C35 9.11165 27.3888 1.50049 18 1.50049Z" stroke="white" stroke-width="2"/>
<path d="M16.7295 17.6465V18.6245L11.4135 18.6305V17.6525L16.7295 17.6465ZM14.5695 20.7905H13.5915L13.5855 15.4745H14.5635L14.5695 20.7905ZM21.3789 13.7045C21.9469 13.7045 22.4549 13.7985 22.9029 13.9865C23.3509 14.1705 23.7049 14.4405 23.9649 14.7965C24.2249 15.1485 24.3549 15.5805 24.3549 16.0925C24.3549 16.5565 24.2289 16.9485 23.9769 17.2685C23.7289 17.5845 23.4089 17.8265 23.0169 17.9945C23.3049 18.0505 23.5789 18.1845 23.8389 18.3965C24.1029 18.6085 24.3189 18.8685 24.4869 19.1765C24.6589 19.4805 24.7449 19.8005 24.7449 20.1365C24.7449 20.6405 24.6049 21.0805 24.3249 21.4565C24.0489 21.8285 23.6589 22.1185 23.1549 22.3265C22.6509 22.5305 22.0589 22.6325 21.3789 22.6325C20.7069 22.6325 20.1189 22.5305 19.6149 22.3265C19.1109 22.1185 18.7189 21.8285 18.4389 21.4565C18.1629 21.0805 18.0249 20.6405 18.0249 20.1365C18.0249 19.8005 18.1089 19.4805 18.2769 19.1765C18.4449 18.8685 18.6609 18.6085 18.9249 18.3965C19.1889 18.1845 19.4629 18.0505 19.7469 17.9945C19.3629 17.8265 19.0429 17.5845 18.7869 17.2685C18.5309 16.9485 18.4029 16.5565 18.4029 16.0925C18.4029 15.5805 18.5329 15.1485 18.7929 14.7965C19.0569 14.4405 19.4129 14.1705 19.8609 13.9865C20.3129 13.7985 20.8189 13.7045 21.3789 13.7045ZM21.3789 17.4665C21.8749 17.4665 22.2769 17.3425 22.5849 17.0945C22.8969 16.8465 23.0529 16.5025 23.0529 16.0625C23.0529 15.6185 22.8969 15.2685 22.5849 15.0125C22.2729 14.7565 21.8709 14.6285 21.3789 14.6285C20.8909 14.6285 20.4909 14.7585 20.1789 15.0185C19.8669 15.2745 19.7109 15.6225 19.7109 16.0625C19.7109 16.5025 19.8669 16.8465 20.1789 17.0945C20.4909 17.3425 20.8909 17.4665 21.3789 17.4665ZM21.3789 21.6185C21.9869 21.6185 22.4689 21.4825 22.8249 21.2105C23.1849 20.9345 23.3649 20.5705 23.3649 20.1185C23.3649 19.8185 23.2829 19.5525 23.1189 19.3205C22.9589 19.0845 22.7309 18.9005 22.4349 18.7685C22.1389 18.6325 21.7869 18.5645 21.3789 18.5645C20.9789 18.5645 20.6309 18.6325 20.3349 18.7685C20.0389 18.9005 19.8089 19.0845 19.6449 19.3205C19.4849 19.5525 19.4049 19.8185 19.4049 20.1185C19.4049 20.5705 19.5829 20.9345 19.9389 21.2105C20.2989 21.4825 20.7789 21.6185 21.3789 21.6185Z" fill="#007867"/>
</svg>
