<svg width="4" height="16" viewBox="0 0 4 16" fill="none" xmlns="http://www.w3.org/2000/svg">
<path d="M2.00065 9.66667C2.92113 9.66667 3.66732 8.92047 3.66732 8C3.66732 7.07952 2.92113 6.33333 2.00065 6.33333C1.08018 6.33333 0.333984 7.07952 0.333984 8C0.333984 8.92047 1.08018 9.66667 2.00065 9.66667Z" fill="#637381"/>
<path d="M2.00065 3.83333C2.92113 3.83333 3.66732 3.08714 3.66732 2.16667C3.66732 1.24619 2.92113 0.5 2.00065 0.5C1.08018 0.5 0.333984 1.24619 0.333984 2.16667C0.333984 3.08714 1.08018 3.83333 2.00065 3.83333Z" fill="#637381"/>
<path d="M2.00065 15.5C2.92113 15.5 3.66732 14.7538 3.66732 13.8333C3.66732 12.9129 2.92113 12.1667 2.00065 12.1667C1.08018 12.1667 0.333984 12.9129 0.333984 13.8333C0.333984 14.7538 1.08018 15.5 2.00065 15.5Z" fill="#637381"/>
</svg>
