<svg width="18" height="17" viewBox="0 0 18 17" fill="none" xmlns="http://www.w3.org/2000/svg">
<path fill-rule="evenodd" clip-rule="evenodd" d="M17.3327 8.49251C17.3327 13.095 13.6019 16.8258 8.99936 16.8258C7.66603 16.8258 6.40603 16.5125 5.28936 15.9558C4.99438 15.8034 4.65386 15.764 4.33186 15.845L2.47686 16.3417C2.29325 16.3907 2.09999 16.3905 1.91647 16.3412C1.73294 16.2919 1.56562 16.1952 1.43129 16.0608C1.29696 15.9263 1.20035 15.759 1.15116 15.5754C1.10196 15.3919 1.10192 15.1986 1.15103 15.015L1.64686 13.16C1.72751 12.8382 1.68779 12.498 1.53519 12.2033C0.961553 11.0506 0.663986 9.78013 0.666026 8.49251C0.666026 3.89001 4.39686 0.15918 8.99936 0.15918C13.6019 0.15918 17.3327 3.89001 17.3327 8.49251ZM5.66603 9.32585C5.44501 9.32585 5.23305 9.23805 5.07677 9.08177C4.92049 8.92549 4.83269 8.71353 4.83269 8.49251C4.83269 8.2715 4.92049 8.05954 5.07677 7.90326C5.23305 7.74698 5.44501 7.65918 5.66603 7.65918C5.88704 7.65918 6.099 7.74698 6.25528 7.90326C6.41156 8.05954 6.49936 8.2715 6.49936 8.49251C6.49936 8.71353 6.41156 8.92549 6.25528 9.08177C6.099 9.23805 5.88704 9.32585 5.66603 9.32585ZM8.16603 8.49251C8.16603 8.71353 8.25382 8.92549 8.4101 9.08177C8.56638 9.23805 8.77835 9.32585 8.99936 9.32585C9.22037 9.32585 9.43233 9.23805 9.58861 9.08177C9.74489 8.92549 9.83269 8.71353 9.83269 8.49251C9.83269 8.2715 9.74489 8.05954 9.58861 7.90326C9.43233 7.74698 9.22037 7.65918 8.99936 7.65918C8.77835 7.65918 8.56638 7.74698 8.4101 7.90326C8.25382 8.05954 8.16603 8.2715 8.16603 8.49251ZM11.4994 8.49251C11.4994 8.71353 11.5872 8.92549 11.7434 9.08177C11.8997 9.23805 12.1117 9.32585 12.3327 9.32585C12.5537 9.32585 12.7657 9.23805 12.9219 9.08177C13.0782 8.92549 13.166 8.71353 13.166 8.49251C13.166 8.2715 13.0782 8.05954 12.9219 7.90326C12.7657 7.74698 12.5537 7.65918 12.3327 7.65918C12.1117 7.65918 11.8997 7.74698 11.7434 7.90326C11.5872 8.05954 11.4994 8.2715 11.4994 8.49251Z" fill="#637381"/>
</svg>
