<svg width="16" height="17" viewBox="0 0 16 17" fill="none" xmlns="http://www.w3.org/2000/svg">
<path fill-rule="evenodd" clip-rule="evenodd" d="M9.50185 2.9445C9.50185 1.41117 10.7518 0.167 12.2918 0.167C12.6575 0.166124 13.0197 0.237271 13.3578 0.376379C13.6959 0.515487 14.0034 0.719832 14.2625 0.977747C14.5217 1.23566 14.7275 1.5421 14.8682 1.87955C15.0089 2.21701 15.0818 2.57888 15.0827 2.9445C15.0827 4.47867 13.8327 5.72283 12.2918 5.72283C11.9223 5.72329 11.5564 5.65029 11.2154 5.50809C10.8743 5.36589 10.5649 5.15732 10.3052 4.8945L6.44268 7.5245C6.55025 8.06033 6.4975 8.61598 6.29102 9.122L10.526 11.9053C11.0248 11.4985 11.649 11.2768 12.2927 11.2778C12.6583 11.2771 13.0205 11.3483 13.3586 11.4875C13.6967 11.6267 14.004 11.8312 14.2631 12.0892C14.5222 12.3472 14.7279 12.6537 14.8685 12.9912C15.0091 13.3287 15.0819 13.6905 15.0827 14.0562C15.0827 15.5895 13.8327 16.8337 12.2918 16.8337C11.5536 16.8352 10.8449 16.5435 10.3217 16.0226C9.79853 15.5018 9.50362 14.7944 9.50185 14.0562C9.5012 13.6667 9.58329 13.2815 9.74268 12.9262L5.54102 10.167C5.03219 10.6094 4.38029 10.8525 3.70602 10.8512C3.34036 10.852 2.97812 10.7809 2.63999 10.6417C2.30185 10.5025 1.99446 10.2981 1.73536 10.0401C1.47626 9.78206 1.27054 9.47552 1.12996 9.13798C0.989369 8.80043 0.916671 8.43849 0.916016 8.07283C0.916781 7.70725 0.989559 7.3454 1.13019 7.00795C1.27083 6.6705 1.47657 6.36406 1.73565 6.10613C1.99474 5.84821 2.3021 5.64385 2.64018 5.50473C2.97826 5.36561 3.34043 5.29446 3.70602 5.29533C4.59268 5.29533 5.38102 5.70617 5.89185 6.34617L9.63602 3.797C9.54694 3.52161 9.50166 3.23394 9.50185 2.9445Z" fill="#637381"/>
</svg>
